<svg xmlns="http://www.w3.org/2000/svg" viewBox="0 0 960 620" role="img" aria-labelledby="title">
  <title id="title">Ecommerce optimizado</title>
  <rect width="960" height="620" fill="#eef5ff"/>
  <rect x="44" y="42" width="872" height="536" rx="18" fill="#ffffff" stroke="#c9dcff"/>
  <rect x="44" y="42" width="872" height="44" rx="18" fill="#111827"/>
  <circle cx="72" cy="64" r="6" fill="#ff7d7d"/><circle cx="94" cy="64" r="6" fill="#ffd166"/><circle cx="116" cy="64" r="6" fill="#50d890"/>
  <rect x="84" y="122" width="180" height="30" rx="15" fill="#e4edff"/>
  <rect x="650" y="122" width="180" height="38" rx="19" fill="#2f6bff"/>
  <rect x="84" y="194" width="320" height="42" rx="6" fill="#172033"/>
  <rect x="84" y="258" width="260" height="16" rx="8" fill="#6f7f98"/>
  <rect x="84" y="308" width="118" height="36" rx="18" fill="#e9f0ff"/>
  <rect x="216" y="308" width="118" height="36" rx="18" fill="#e9f0ff"/>
  <rect x="348" y="308" width="118" height="36" rx="18" fill="#e9f0ff"/>
  <rect x="514" y="146" width="302" height="340" rx="18" fill="#f7faff" stroke="#d6e4ff"/>
  <rect x="548" y="182" width="234" height="166" rx="14" fill="#dbe7ff"/>
  <rect x="548" y="378" width="142" height="18" rx="9" fill="#172033"/>
  <rect x="548" y="414" width="110" height="44" rx="22" fill="#50d890"/>
  <rect x="84" y="426" width="350" height="72" rx="12" fill="#f2f7ff"/>
  <rect x="112" y="450" width="94" height="14" rx="7" fill="#2f6bff"/>
  <rect x="112" y="478" width="238" height="10" rx="5" fill="#9aabc6"/>
</svg>
