<svg xmlns="http://www.w3.org/2000/svg" viewBox="0 0 960 620" role="img" aria-labelledby="title">
  <title id="title">Ecommerce antiguo</title>
  <rect width="960" height="620" fill="#f1ece6"/>
  <rect x="44" y="42" width="872" height="536" rx="18" fill="#fff" stroke="#d7c8bb"/>
  <rect x="44" y="42" width="872" height="44" rx="18" fill="#cdbbab"/>
  <circle cx="72" cy="64" r="6" fill="#b95a55"/><circle cx="94" cy="64" r="6" fill="#c99a4a"/><circle cx="116" cy="64" r="6" fill="#7b9a6b"/>
  <rect x="84" y="124" width="210" height="28" rx="4" fill="#8b7a6b"/>
  <rect x="84" y="184" width="138" height="386" rx="6" fill="#eee6dd"/>
  <rect x="108" y="214" width="88" height="12" rx="6" fill="#a69383"/>
  <rect x="108" y="250" width="70" height="12" rx="6" fill="#bfb0a2"/>
  <rect x="108" y="286" width="84" height="12" rx="6" fill="#bfb0a2"/>
  <g fill="#efe6dc" stroke="#d2c1b1">
    <rect x="258" y="184" width="178" height="142" rx="8"/>
    <rect x="464" y="184" width="178" height="142" rx="8"/>
    <rect x="670" y="184" width="178" height="142" rx="8"/>
    <rect x="258" y="362" width="178" height="142" rx="8"/>
    <rect x="464" y="362" width="178" height="142" rx="8"/>
    <rect x="670" y="362" width="178" height="142" rx="8"/>
  </g>
  <g fill="#b7a494">
    <rect x="286" y="294" width="86" height="10" rx="5"/><rect x="492" y="294" width="86" height="10" rx="5"/><rect x="698" y="294" width="86" height="10" rx="5"/>
    <rect x="286" y="472" width="86" height="10" rx="5"/><rect x="492" y="472" width="86" height="10" rx="5"/><rect x="698" y="472" width="86" height="10" rx="5"/>
  </g>
</svg>
