<svg width="1200" height="720" viewBox="0 0 1200 720" fill="none" xmlns="http://www.w3.org/2000/svg">
  <rect width="1200" height="720" rx="36" fill="#06223F"/>
  <rect x="42" y="42" width="1116" height="636" rx="28" fill="#113D71"/>
  <rect x="86" y="90" width="1028" height="70" rx="14" fill="#0A2B51"/>
  <rect x="116" y="112" width="240" height="24" rx="8" fill="#66D0FF"/>
  <rect x="86" y="188" width="250" height="300" rx="18" fill="#0A2F5B"/>
  <rect x="366" y="188" width="250" height="300" rx="18" fill="#0A2F5B"/>
  <rect x="646" y="188" width="250" height="300" rx="18" fill="#0A2F5B"/>
  <rect x="926" y="188" width="188" height="300" rx="18" fill="#0A2F5B"/>
  <rect x="112" y="212" width="198" height="120" rx="12" fill="#2B83E3"/>
  <rect x="392" y="212" width="198" height="120" rx="12" fill="#4F9EF4"/>
  <rect x="672" y="212" width="198" height="120" rx="12" fill="#74B7FF"/>
  <rect x="952" y="212" width="136" height="120" rx="12" fill="#9CCFFF"/>
  <rect x="112" y="356" width="140" height="28" rx="8" fill="#D9F3FF"/>
  <rect x="392" y="356" width="140" height="28" rx="8" fill="#D9F3FF"/>
  <rect x="672" y="356" width="140" height="28" rx="8" fill="#D9F3FF"/>
  <rect x="952" y="356" width="110" height="28" rx="8" fill="#D9F3FF"/>
  <rect x="86" y="520" width="1028" height="120" rx="18" fill="#1556AA"/>
  <text x="120" y="590" fill="#EAF8FF" font-size="36" font-family="Arial, sans-serif" font-weight="700">Ecommerce de decoración</text>
</svg>
